<svg id="SvgjsSvg1001" width="360" height="360" xmlns="http://www.w3.org/2000/svg" version="1.1" xmlns:xlink="http://www.w3.org/1999/xlink" xmlns:svgjs="http://svgjs.com/svgjs"><defs id="SvgjsDefs1002"></defs><g id="SvgjsG1008" transform="matrix(0.9167,0,0,0.9167,14.99399682235719,14.993999364471449)"><svg xmlns="http://www.w3.org/2000/svg" enable-background="new 0 0 5000 5000" viewBox="0 0 5000 5000" width="360" height="360"><linearGradient id="a" x1="1995.584" x2="4787.973" y1="3161.551" y2="369.162" gradientUnits="userSpaceOnUse"><stop offset="0" stop-color="#4177b1" class="stopColor41b193 svgShape"></stop><stop offset="1" stop-color="#044080" class="stopColor045f80 svgShape"></stop></linearGradient><path fill="url(#a)" d="M3737.216,2603.446c-66.511-422.238-431.947-745.124-872.859-745.124
		c-13.197,0-26.309,0.421-39.348,1c-200.385-273.129-523.534-450.571-888.275-450.571
		c-608.292,0-1101.383,493.084-1101.383,1101.345c0,608.286,493.091,1101.37,1101.383,1101.37
		c133.375,0,261.139-23.711,379.451-67.12c117.458,87.843,263.274,139.827,421.189,139.827c119.007,0,231.037-29.639,329.321-81.757
		c34.883-8.154,68.999-18.278,102.163-30.45c94.234,70.506,211.253,112.207,337.993,112.207
		c312.026,0,564.895-252.93,564.895-564.949C4071.745,2889.321,3934.333,2691.631,3737.216,2603.446z"></path><path fill="#4177b1" d="M4321.003,3574.088c0-98.357-815.288-178.095-1820.997-178.095
		c-1005.721,0-1821.01,79.739-1821.01,178.095c0,98.364,815.289,178.101,1821.01,178.101
		C3505.715,3752.189,4321.003,3672.451,4321.003,3574.088z" class="color41b193 svgShape"></path><polygon fill="#529ded" points="1698.622 1876.239 1842.279 1791.281 3154.244 1791.281 3066.743 1876.239" class="colored6d52 svgShape"></polygon><path fill="#529ded" d="M2409.089,1362.115c-1.305,62.949-36.347,179.931-70.219,268.64
				c-35.567-67.041-75.585-201.569-73.853-269.824C2303.365,1371.556,2368.18,1373.209,2409.089,1362.115z" class="colored6d52 svgShape"></path><path fill="#4ba0fb" d="M2409.089,1362.115c-40.909,11.094-105.724,9.44-144.072-1.183
				c0.524-20.113,4.61-34.438,13.404-39.811c25.883,11.856,92.454,13.899,120.385-0.079
				C2406.442,1327.39,2409.516,1342.027,2409.089,1362.115z" class="colorfbc14b svgShape"></path><path fill="#044080" d="M2256.675,1427.296c0.439,1.494,0.915,2.988,1.366,4.538c0.5,1.756,0.939,3.543,1.39,5.3
				c0.415,1.884,0.842,3.854,1.122,5.793h83.331c1.232-5.348,2.366-10.544,3.622-15.63H2256.675z M2256.675,1427.296
				c0.439,1.494,0.915,2.988,1.366,4.538c0.5,1.756,0.939,3.543,1.39,5.3c0.415,1.884,0.842,3.854,1.122,5.793h83.331
				c1.232-5.348,2.366-10.544,3.622-15.63H2256.675z M2256.675,1427.296c0.439,1.494,0.915,2.988,1.366,4.538
				c0.5,1.756,0.939,3.543,1.39,5.3c0.415,1.884,0.842,3.854,1.122,5.793h83.331c1.232-5.348,2.366-10.544,3.622-15.63H2256.675z
				 M2418.908,1362.695l-9.758-2.074h-0.085l-13.661-2.939l-45.093-9.703c-5.062-1.128-8.185-5.086-8.185-6.849v-6.239
				c4.123-0.921,8.185-2.415,11.856-4.512c13.673-7.343,22.979-21.876,22.979-38.555c0-24.211-19.747-44.013-43.958-44.013
				c-16.795,0-31.396,9.44-38.738,23.235h16.124c5.61-6.111,13.697-9.886,22.613-9.886c16.917,0,30.712,13.74,30.712,30.663
				c0,16.734-13.453,30.426-30.139,30.657h-1.623c-3.208,0.476-5.586,3.098-5.586,6.403v6.501c0,0,0.122,0,0.183,0v5.745
				c0,1.763-3.171,5.721-8.319,6.849l-53.167,11.435l-15.295,3.281l-17.784,3.751h-0.049l-6.452,1.36v75.122h216.498v-75.305
				L2418.908,1362.695z M2426.506,1427.296h-185.603v-46.77l15.039-3.171v-0.079l9.258-1.939l36.274-7.764h0.049l19.99-4.305
				c0.732-0.183,1.464-0.39,2.098-0.573c4.122-1.263,7.757-3.281,10.673-5.928c0.865,0.786,1.756,1.494,2.756,2.146
				c2.354,1.628,5.086,2.86,7.916,3.781c0.744,0.183,1.476,0.39,2.184,0.573l24.076,5.141l24.26,5.22l12.807,2.727h0.073
				l18.149,3.909V1427.296z M2256.675,1427.296c0.439,1.494,0.915,2.988,1.366,4.538c0.5,1.756,0.939,3.543,1.39,5.3
				c0.415,1.884,0.842,3.854,1.122,5.793h83.331c1.232-5.348,2.366-10.544,3.622-15.63H2256.675z M2256.675,1427.296
				c0.439,1.494,0.915,2.988,1.366,4.538c0.5,1.756,0.939,3.543,1.39,5.3c0.415,1.884,0.842,3.854,1.122,5.793h83.331
				c1.232-5.348,2.366-10.544,3.622-15.63H2256.675z M2256.675,1427.296c0.439,1.494,0.915,2.988,1.366,4.538
				c0.5,1.756,0.939,3.543,1.39,5.3c0.415,1.884,0.842,3.854,1.122,5.793h83.331c1.232-5.348,2.366-10.544,3.622-15.63H2256.675z" class="color045f80 svgShape"></path><path fill="#4ba0fb" d="M2338.871,1630.756c-4.562,11.831-9.038,23.216-13.392,33.865
				c-106.895-156.433-120.58-245.246-103.248-293.455c11.233-31.608,35.859-45.745,56.191-50.045
				c-8.794,5.373-12.88,19.698-13.404,39.811C2263.285,1429.187,2303.304,1563.714,2338.871,1630.756z" class="colorfbc14b svgShape"></path><path fill="#4ba0fb" d="M2347.396,1653.076c-4.903,6.873-10.063,13.88-15.417,21.01
				c-7.769,10.495-16.051,21.223-24.845,32.267v-0.237c5.72-11.887,11.917-25.913,18.344-41.495
				c4.354-10.648,8.831-22.034,13.392-33.865c33.872-88.709,68.914-205.691,70.219-268.64c0.427-20.089-2.647-34.725-10.282-41.074
				c20.905,4.037,42.263,21.217,50.837,54.32C2462.963,1426.534,2445.473,1515.792,2347.396,1653.076z" class="colorfbc14b svgShape"></path><path fill="#044080" d="M2327.284,1977.822c-4.647,1.653-8.294,1.366-8.294,1.366s-187.566,6.318-187.566-9.471
				c0-85.691,41.47-125.349,41.47-174.058c0-36.536-10.355-97.021-21.869-158.421v-0.031
				c-14.722-78.085-31.42-157.635-31.42-191.421c0-36.487,17.515-50.593,25.309-55.027c2.257-1.286,3.671-1.787,3.671-1.787
				l73.646-17.808c-17.332,48.209-3.647,137.022,103.248,293.455c-6.428,15.582-12.624,29.608-18.344,41.495
				c-0.073,0.158-0.122,0.39-0.232,0.548c0.11-0.103,0.159-0.207,0.232-0.311v230.921
				C2307.134,1965.601,2318.892,1974.859,2327.284,1977.822z" class="color045f80 svgShape"></path><path fill="#044080" d="M2481.638 1795.66c0 48.709 41.47 88.368 41.47 174.058 0 15.789-187.567 9.471-187.567 9.471s-3.61.287-8.257-1.366c-8.392-2.964-20.15-12.221-20.15-40.549v-230.921c8.794-11.044 17.076-21.771 24.845-32.267 5.354-7.13 10.514-14.137 15.417-21.01 98.076-137.284 115.567-226.542 102.248-277.715l56.363 13.612c0 0 2.708 0 6.245 2.598-1.073-.342-2.208-.604-3.305-.811 2.598 1.439 6.294 4.062 10.026 8.154 7.526 8.16 15.308 22.559 15.308 46.873 0 28.511-11.905 89.6-24.468 154.885-.049.262-.11.525-.134.866-1.146 5.903-2.22 11.855-3.403 17.783-.085.055-.085.128 0 .183-1.208 5.903-2.366 11.807-3.415 17.704v.031c0 .104.024.287.024.366C2491.822 1697.668 2481.638 1757.916 2481.638 1795.66zM2151.024 1637.208v.031c-15.161 119.787-47.85 222.87-70.585 317.056l-74.366-13.85c11.1-79.763 20.223-160.837 34.152-240.392 17.551-96.021 27.968-293.925 104.687-309.293-7.794 4.434-25.309 18.54-25.309 55.027C2119.604 1479.573 2136.302 1559.122 2151.024 1637.208z" class="color045f80 svgShape"></path><path fill="#044080" d="M2647.786,1940.445l-74.341,13.85c-22.771-94.083-55.399-197.062-70.56-316.69
				c1.134-6.032,2.281-12.094,3.391-18.101c-0.085-0.055-0.085-0.128,0-0.183c1.183-5.928,2.256-11.88,3.403-17.783
				c0.024-0.342,0.085-0.604,0.134-0.866c12.563-65.285,24.468-126.373,24.468-154.885c0-24.314-7.782-38.713-15.308-46.873
				c-2.342-3.616-4.647-5.953-6.721-7.343c73.756,20.223,84.087,213.875,101.406,308.482
				C2627.551,1779.608,2636.711,1860.682,2647.786,1940.445z" class="color045f80 svgShape"></path><path fill="#4ba0fb" d="M2373.108 1770.192c0 9.965-8.087 18.07-18.052 18.07-9.965 0-18.039-8.105-18.039-18.07 0-9.941 8.074-18.021 18.039-18.021C2365.021 1752.171 2373.108 1760.252 2373.108 1770.192zM2373.108 1854.047c0 9.996-8.087 18.046-18.052 18.046-9.965 0-18.039-8.05-18.039-18.046 0-9.941 8.074-18.021 18.039-18.021C2365.021 1836.026 2373.108 1844.106 2373.108 1854.047z" class="colorfbc14b svgShape"></path><path fill="#d0d5db" d="M2409.15,1362.219c-1.293,62.925-36.383,179.907-70.243,268.64
					c-0.586-1.177-1.232-2.385-1.842-3.592v-13.222c42.336-124.007,58.753-201.934,58.546-248.783
					c-0.049-17.546-2.489-30.688-6.77-40.263c3.696-1.128,7.111-2.409,9.989-3.879
					C2406.491,1327.494,2409.564,1342.1,2409.15,1362.219z" class="colordbd8d0 svgShape"></path><rect width="86.551" height="27.2" x="2377.438" y="1633.561" fill="#4ba0fb" class="colorfbc14b svgShape"></rect><g fill="#000000" class="color000 svgShape"><path fill="#11355c" d="M2900.972,1574.204l-125.873-32.047l-30.591,49.02l-61.156,240.208l17.016,4.33l125.849,32.048
					l17.003,4.33l61.192-240.185L2900.972,1574.204z M2827.875,1598.129c-7.427-1.891-11.917-9.441-10.001-16.838
					c1.89-7.422,9.416-11.886,16.844-10.02c7.391,1.884,11.88,9.416,9.989,16.838
					C2842.817,1595.53,2835.291,1600.019,2827.875,1598.129z" class="color11405c svgShape"></path><path fill="#044080" d="M2877.627,1424.229c-17.417-4.434-37.53,35.353-47.629,75.012
					c-5.013,19.729-7.611,39.244-7.343,55.002l5.343,1.366c-0.257-15.369,2.098-35.853,7.013-55.082
					c11.514-45.3,31.03-73.939,41.335-71.317c10.307,2.623,13.746,37.116,2.22,82.409c-11.538,45.275-31.053,73.915-41.36,71.267
					c-3.098-0.786-5.903-5.562-7.574-11.935c-1.757,0.207-3.415,0.787-4.904,1.628c2.171,8.788,5.928,13.978,11.221,15.314
					c17.393,4.434,37.506-35.353,47.605-75.012C2893.654,1473.225,2895.021,1428.662,2877.627,1424.229z" class="color045f80 svgShape"></path><path fill="#3e98f9" d="M2802.505,1661.888l2.525-9.886l17.125,4.355l-2.525,9.916
						c14.088,6.818,18.783,20.144,14.173,38.238l-1.049,4.172l-19.808-5.038l1.415-5.507c2.415-9.52-0.476-14.112-7.111-15.789
						c-6.684-1.702-11.404,0.945-13.819,10.465c-6.977,27.382,33.603,39.134,23.919,77.219
						c-4.611,18.046-15.393,27.675-31.005,26.937l-2.464,9.709l-17.125-4.354l2.464-9.709c-14.246-6.873-18.905-20.43-14.294-38.5
						l2.305-9.129l19.808,5.037l-2.671,10.465c-2.416,9.495,0.89,14.002,7.55,15.71c6.66,1.677,11.721-0.683,14.161-10.178
						c6.952-27.406-33.627-39.159-23.919-77.219C2776.697,1670.914,2787.028,1661.394,2802.505,1661.888z" class="colorf9d53e svgShape"></path><g fill="#000000" class="color000 svgShape"><path fill="#4177b1" d="M3001.537,1639.671h-129.886l-17.528,55.057v247.869h17.528h129.886h17.552v-247.869
					L3001.537,1639.671z M2936.588,1680.91c-7.623,0-13.844-6.22-13.844-13.88c0-7.629,6.221-13.819,13.844-13.819
					c7.66,0,13.856,6.19,13.856,13.819C2950.444,1674.689,2944.248,1680.91,2936.588,1680.91z" class="color41b193 svgShape"></path><path fill="#044080" d="M2941.893,1500.107c-17.941,0-27.626,43.512-27.626,84.434c0,20.381,2.305,39.897,6.452,55.13
					h5.489c-4.013-14.819-6.794-35.274-6.794-55.13c0-46.715,11.856-79.293,22.479-79.293c10.624,0,22.479,32.578,22.479,79.293
					c0,46.739-11.855,79.293-22.479,79.293c-3.207,0-7.11-3.933-10.306-9.708c-1.634,0.658-3.098,1.604-4.354,2.781
					c4.269,8.001,9.196,12.093,14.66,12.093c17.967,0,27.615-43.513,27.615-84.458
					C2969.508,1543.619,2959.86,1500.107,2941.893,1500.107z" class="color045f80 svgShape"></path><path fill="#ffffff" d="M2927.757,1748.945v-10.203h17.673v10.203c15.296,3.147,23.187,14.923,23.187,33.572v4.33
						h-20.43v-5.69c0-9.813-3.939-13.563-10.806-13.563c-6.879,0-10.807,3.751-10.807,13.563c0,28.248,42.226,29.639,42.226,68.901
						c0,18.649-8.074,30.639-23.37,33.786v10.02h-17.673v-10.02c-15.503-3.147-23.345-15.137-23.345-33.786v-9.417h20.406v10.807
						c0,9.813,4.329,13.35,11.196,13.35s11.197-3.537,11.197-13.35c0-28.273-42.226-29.663-42.226-68.932
						C2904.986,1764.082,2912.645,1752.275,2927.757,1748.945z" class="colorfff svgShape"></path></g></g><g fill="#000000" class="color000 svgShape"><path fill="#4ba0fb" d="M2174.686,1785.67c0,86.66-70.243,156.903-156.915,156.903
					c-86.661,0-156.927-70.243-156.927-156.903c0-86.666,70.267-156.909,156.927-156.909
					C2104.443,1628.761,2174.686,1699.004,2174.686,1785.67z" class="colorfbc14b svgShape"></path><circle cx="2017.771" cy="1785.67" r="128.472" fill="#4ba0fb" transform="rotate(-45.001 2017.76 1785.702)" class="colorfbc14b svgShape"></circle><path fill="#2979ce" d="M2017.771,1921.485c-74.878,0-135.815-60.931-135.815-135.814
						c0-74.89,60.937-135.82,135.815-135.82c74.89,0,135.79,60.93,135.79,135.82
						C2153.561,1860.554,2092.661,1921.485,2017.771,1921.485z M2017.771,1664.541c-66.804,0-121.117,54.32-121.117,121.129
						c0,66.779,54.314,121.123,121.117,121.123c66.791,0,121.129-54.344,121.129-121.123
						C2138.9,1718.861,2084.562,1664.541,2017.771,1664.541z" class="colorce7829 svgShape"></path><g fill="#000000" class="color000 svgShape"><path fill="#142b43" d="M2008.123,1859.896v-17.308c-12.173-0.531-24.003-3.806-30.919-7.794l5.476-21.296
						c7.636,4.171,18.357,8.001,30.188,8.001c10.368,0,17.442-3.989,17.442-11.282c0-6.898-5.794-11.276-19.272-15.813
						c-19.466-6.562-32.736-15.661-32.736-33.31c0-16.003,11.258-28.541,30.736-32.395v-17.259h17.845v15.996
						c12.16,0.555,20.345,3.098,26.358,6.007l-5.269,20.564c-4.72-1.994-13.087-6.159-26.212-6.159
						c-11.831,0-15.624,5.062-15.624,10.172c0,5.983,6.342,9.813,21.82,15.637c21.662,7.63,30.371,17.625,30.371,34.018
						c0,16.185-11.441,30.004-32.371,33.651v18.57H2008.123z" class="color142743 svgShape"></path></g></g><rect width="1368.12" height="1677.339" x="1698.622" y="1876.239" fill="#4ba0fb" class="colorfbc14b svgShape"></rect><g fill="#000000" class="color000 svgShape"><path fill="#dcecfe" d="M2126.178 2116.839c0 24.681-19.979 44.696-44.665 44.696-24.687 0-44.69-20.015-44.69-44.696 0-24.657 20.004-44.666 44.69-44.666C2106.199 2072.173 2126.178 2092.182 2126.178 2116.839zM2728.543 2116.839c0 24.681-20.015 44.696-44.702 44.696-24.651 0-44.666-20.015-44.666-44.696 0-24.657 20.015-44.666 44.666-44.666C2708.527 2072.173 2728.543 2092.182 2728.543 2116.839z" class="coloredfedc svgShape"></path></g><path fill="#dcecfe" d="M2382.683,2586.504c-183.005,0-331.883-148.877-331.883-331.881
			c0-13.795,11.173-24.974,24.992-24.974c13.795,0,24.979,11.179,24.979,24.974c0,155.433,126.471,281.91,281.911,281.91
			c155.427,0,281.91-126.477,281.91-281.91c0-13.795,11.173-24.974,24.992-24.974c13.795,0,25.004,11.179,25.004,24.974
			C2714.589,2437.628,2565.687,2586.504,2382.683,2586.504z" class="coloredfedc svgShape"></path><polygon fill="#4ba0fb" points="3066.743 3553.579 3144.853 3462.461 3222.963 3437.462 3154.244 1791.281 3066.743 1876.239" class="colorfbc14b svgShape"></polygon><polygon fill="#4ba0fb" points="3222.963 3437.462 3144.853 3462.461 3099.37 1844.496 3154.244 1791.281" class="colorfbc14b svgShape"></polygon><g fill="#000000" class="color000 svgShape"><path fill="#4ba0fb" d="M2552.99,1604.897c-9.342,0.653-16.417,8.782-15.77,18.119l11.599,165.325
					c0.658,9.337,8.781,16.423,18.125,15.765l116.434-8.185c9.33-0.653,16.393-8.788,15.758-18.124l-11.624-165.326
					c-0.647-9.337-8.782-16.393-18.088-15.734L2552.99,1604.897z" class="colorfbc14b svgShape"></path><path fill="#529ded" d="M2556.478,1618.351c-3.549,0.262-6.171,3.306-5.927,6.794l1.891,27.12
							c0.256,3.489,3.305,6.135,6.793,5.903l111.396-7.818c3.513-0.262,6.16-3.305,5.892-6.794l-1.879-27.12
							c-0.244-3.488-3.281-6.135-6.83-5.903L2556.478,1618.351z" class="colored6d52 svgShape"></path><polygon fill="#093059" points="2577.885 1706.06 2555.222 1707.664 2553.588 1684.843 2576.275 1683.24" class="color093959 svgShape"></polygon><rect width="22.719" height="22.874" x="2588.931" y="1681.601" fill="#093059" transform="rotate(-4.052 2600.755 1693.56)" class="color093959 svgShape"></rect><polygon fill="#093059" points="2646.993 1701.236 2624.307 1702.81 2622.708 1679.989 2645.395 1678.391" class="color093959 svgShape"></polygon><polygon fill="#093059" points="2681.535 1698.797 2658.873 1700.394 2657.251 1677.549 2679.938 1675.976" class="color093959 svgShape"></polygon><g fill="#000000" class="color000 svgShape"><polygon fill="#093059" points="2580.324 1741.023 2557.649 1742.597 2556.052 1719.806 2578.714 1718.208" class="color093959 svgShape"></polygon><polygon fill="#093059" points="2614.891 1738.614 2592.204 1740.187 2590.63 1717.367 2613.292 1715.794" class="color093959 svgShape"></polygon><rect width="22.718" height="22.877" x="2625.943" y="1714.125" fill="#093059" transform="rotate(-4.031 2638.989 1726.588)" class="color093959 svgShape"></rect><polygon fill="#093059" points="2683.999 1733.76 2661.312 1735.333 2659.715 1712.537 2682.401 1710.915" class="color093959 svgShape"></polygon></g><g fill="#000000" class="color000 svgShape"><polygon fill="#093059" points="2582.787 1775.986 2560.089 1777.566 2558.491 1754.745 2581.177 1753.141" class="color093959 svgShape"></polygon><rect width="22.719" height="22.874" x="2593.841" y="1751.503" fill="#093059" transform="rotate(-4.052 2604.502 1762.749)" class="color093959 svgShape"></rect><polygon fill="#093059" points="2651.896 1771.138 2629.234 1772.735 2627.612 1749.89 2650.274 1748.317" class="color093959 svgShape"></polygon><polygon fill="#093059" points="2686.438 1768.722 2663.752 1770.296 2662.154 1747.475 2684.84 1745.877" class="color093959 svgShape"></polygon></g></g><g fill="#000000" class="color000 svgShape"><path fill="#a6cef9" d="M3402.345,2553.584c-2.171,9.099-4.269,19.094-6.245,30.164
								c-14.978,83.727,59.314,206.923,59.314,206.923l-32.323,25.364c-93.612-119.263-93.661-215.577-86.367-278.032
								C3357.631,2546.632,3379.817,2552.036,3402.345,2553.584z" class="colorf9a6a6 svgShape"></path><path fill="#a6cef9" d="M3450.975,2788.756l1.231-0.104c6.879-0.604,13.819,0.5,20.271,3.226
								c7.77,3.305,18.052,8.001,23.614,11.88c9.733,6.769,20.662,19.125,14.953,19.046c-5.745-0.08-17.295-2.806-19.125,1.256
								c-1.842,4.092,20.564,57.577,29.224,68.59c4.318,5.507,1.147,8.026-3.184,9.154c-5.244,1.415-10.965,0.079-15.6-3.092
								c-12.855-8.819-43.202-30.584-58.473-50.051c-19.723-25.126-21.345-34.304-21.345-34.304L3450.975,2788.756z" class="colorf9a6a6 svgShape"></path><polygon fill="#a6cef9" points="3398.906 2791.354 3408.907 2804.1 3446.413 2774.644 3440.583 2758.647" class="colorf9a6a6 svgShape"></polygon><path fill="#a6cef9" d="M3405.053,2782.963c0,7.471,6.086,13.557,13.587,13.557c7.526,0,13.576-6.086,13.576-13.557
							c0-7.532-6.05-13.588-13.576-13.588C3411.139,2769.375,3405.053,2775.431,3405.053,2782.963z" class="colorf9a6a6 svgShape"></path><linearGradient id="b" x1="1380.454" x2="1474.872" y1="2497.59" y2="2497.59" gradientTransform="matrix(-1 0 0 1 4808.975 0)" gradientUnits="userSpaceOnUse"><stop offset=".186" stop-color="#509def" class="stopColor5098ef svgShape"></stop><stop offset="1" stop-color="#3887dc" class="stopColor38c7dc svgShape"></stop></linearGradient><path fill="url(#b)" d="M3428.52,2470.803l-16.527,89.758h-77.891v-97.076
						C3334.102,2463.485,3362.583,2393.901,3428.52,2470.803z"></path><polygon fill="#a6cef9" points="3367.168 3498.917 3368.718 3489.056 3334.468 3489.056 3331.846 3498.917 3329.065 3539.021 3351.093 3548.62 3358.411 3554.39" class="colorf9a6a6 svgShape"></polygon><polygon fill="#a6cef9" points="3501.385 3522.683 3501.019 3489.056 3467.392 3489.056 3467.392 3522.391 3467.392 3522.683 3467.392 3543.01 3484.529 3554.39 3501.654 3554.39" class="colorf9a6a6 svgShape"></polygon><path fill="#044080" d="M3428.52,3127.09l-4.952,136.577l-46.825,243.721h-9.575h-35.322h-7.684
						c0,0,4.793-305.859,14.295-379.957c5.428-42.019,4.696-137.26,2.964-211.619
						C3369.425,2973.542,3407.126,3052.413,3428.52,3127.09z" class="color045f80 svgShape"></path><path fill="#044080" d="M3458.561,2757.678c-1.659-4.91-3.184-9.051-4.805-12.569
						c-29.297-64.523-129.594-21.503-129.594-21.503s-6.672,13.008-12.539,32.182c-7.769,25.101-14.014,60.876-1.817,92.063
						c5.879,15.082,17.527,38.848,31.615,67.962c28.004,57.729,65.706,136.601,87.099,211.277
						c7.159,24.84,12.49,49.124,15.112,72.079c13.819,121.544,10.392,307.982,10.124,322.594l13.636,0.628l33.993,0.292h10.392
						l9.282-399.502C3521.059,3123.181,3487.018,2842.606,3458.561,2757.678z" class="color045f80 svgShape"></path><path fill="#a6cef9" d="M3484.493,2380.6l19.515,3.671l-2.781,12.276l-10.099,44.617l-3.83,16.709
						c0,0-10.88-2.073-21.138-4.25c-4.512-0.97-8.867-1.994-12.173-2.884c-3.489-0.866-5.843-1.653-5.843-1.995
						c0-1.732,19.064-71.341,19.064-71.341l4.879,0.86L3484.493,2380.6z" class="colorf9a6a6 svgShape"></path><path fill="#4ba0fb" d="M3311.306,2754.056c-7.928-4.72-16.759-14.454-12.465-23.394
						c56.497-117.378,19.515-246.85,25.321-245.795c93.979-121.154,144.828-30.639,146.219-30.352
						c9.392,1.915,18.625-3.982,20.747-13.35l0,0c40.604,33.706,16.087,53.588,20.149,113.628
						c1.622,24.156-50.313,63.473-55.863,105.626c-2.476,18.491,13.709,73.359,13.709,73.359
						c-0.708,10.178-7.318,18.704-16.369,22.089C3451.207,2751.171,3316.941,2735.589,3311.306,2754.056z" class="colorfbc14b svgShape"></path><linearGradient id="c" x1="1359.616" x2="1359.616" y1="2575.116" y2="2660.085" gradientTransform="matrix(-1 0 0 1 4808.975 0)" gradientUnits="userSpaceOnUse"><stop offset=".186" stop-color="#509def" class="stopColor5098ef svgShape"></stop><stop offset="1" stop-color="#3887dc" class="stopColor38c7dc svgShape"></stop></linearGradient><path fill="url(#c)" d="M3486.725,2599.934l-5.818,7.921c0,0-21.979,14.057-29.297-3.939
						c0,0-33.42,27.205-39.616-3.958c0,0-0.366,7.947,20.223,3.672c20.601-4.275,23.199-12.221,23.199-12.221
						S3456.195,2607.252,3486.725,2599.934z"></path><path fill="#2f94ff" d="M3472.088,2378.264l12.405,2.335c-2.781,1.312-4.842,2.439-6.392,4.355
						c-3.573-2.073-5.769-3.385-5.769-3.385S3472.246,2380.368,3472.088,2378.264z" class="color552fff svgShape"></path><path fill="#a6cef9" d="M3472.088,2394.633c-1.049-20.564-1.488-113.073,73.341-93.247c0,0,6.927,2.812,9.184,15.924
						c0.781,4.695-2.549,18.625-1.208,24.632c3.244,14.581,6.952,30.474,5.586,35.384c-3.39,12.484-8.55,7.709-8.55,7.709
						s4.72,36.957-15.381,41.183c-8.781,1.757-21.918-3.281-33.835-9.574c-9.233-4.83-17.747-10.258-23.125-13.929
						c-3.573-2.543-5.769-4.092-5.769-4.092S3472.246,2397.151,3472.088,2394.633z" class="colorf9a6a6 svgShape"></path><path fill="#4177b1" d="M3426.446,3184.715l2.074-57.625l-55.948-158.69
						C3372.572,2968.4,3417.958,3207.505,3426.446,3184.715z" class="color41b193 svgShape"></path><path fill="#579feb" d="M3468.648 3526.403c-1.573-.811-24.26-.287-13.136 29.169 11.173 29.456 8.294 39.055 8.294 39.055h9.233l-3.184-26.309c0 0 5.928 21.43 22.748 25.419 10.441 2.464 28.931 1.86 41.336 1.018 10.514-.677 19.857-7.812 22.187-18.07 1.341-6.007.341-12.459-6.77-17.204-17.808-11.935-42.568-5.092-42.568-5.092S3475.894 3530.154 3468.648 3526.403zM3325.491 3526.403c-1.597-.811-24.284-.287-13.185 29.169 11.221 29.456 8.331 39.055 8.331 39.055h9.233l-3.171-26.309c0 0 5.903 21.43 22.711 25.419 10.441 2.464 28.931 1.86 41.397 1.018 10.465-.677 19.833-7.812 22.137-18.07 1.366-6.007.366-12.459-6.769-17.204-17.807-11.935-42.543-5.092-42.543-5.092S3332.737 3530.154 3325.491 3526.403z" class="coloreba057 svgShape"></path><path fill="#91b8e2" d="M3493.628,2430.23c0,0-22.93-24.108-24.003-34.152l27.541,18.387L3493.628,2430.23z" class="colore29191 svgShape"></path><path fill="#11355c" d="M3381.415,2321.011c-2.891-98.912,64.888-115.646,99.516-105.285
						c131.07,39.287,86.502,74.439,77.72,92.667c-2.781,5.848-1.257,15.813-4.037,13.087c-15.82-15.557-32.761-8.55-32.761-8.55
						c-9.843-4.013-19.076-0.525-27.078,12.093c-8.074,12.691,11.49,44.903-4.586,52.905c-2.171,1.128-4.172,1.652-5.696,2.671
						c-25.065,17.394-4.196,54.429-17.015,65.444c-33.054,28.352-86.172-28.407-141.827,101.01
						c-2.329,5.458-16.076,0.921-16.002-4.172C3311.172,2448.562,3384.379,2419.948,3381.415,2321.011z" class="color11405c svgShape"></path><linearGradient id="d" x1="3085.305" x2="3350.971" y1="2644.271" y2="2675.495" gradientTransform="translate(879.883)" gradientUnits="userSpaceOnUse"><stop offset=".186" stop-color="#1b69bc" class="stopColor1b75bc svgShape"></stop><stop offset="1" stop-color="#3887dc" class="stopColor38c7dc svgShape"></stop></linearGradient><polygon fill="url(#d)" points="3390.807 2535.985 3379.817 2537.613 3468.392 2626.657 3477.309 2612.283"></polygon><path fill="#87add6" d="M3548.307,2408.458l2.049-4.934c0,0-9.367-5.427-16.393-13.063
						c-7.025-7.629-20.747-29.56-29.955-23.211c-9.234,6.373-14.161,14.375-14.161,14.375L3548.307,2408.458z" class="colord68787 svgShape"></path><g fill="#000000" class="color000 svgShape"><polygon fill="#5f9de0" points="3488.225 2376.013 3478.284 2422.253 3560.383 2457.191 3570.396 2412.391" class="colore0e05f svgShape"></polygon><path fill="#a6cef9" d="M3510.704,2450.843c-6.221-1.208-25.895-19.04-16.234-19.46
							c9.624-0.396,18.454,4.116,18.454,4.116s6.452-10.965-7.757-30.425c-14.185-19.436-10.417-32.737,0.817-28.932
							c11.221,3.806,18.954,10.044,34.639,35.256c15.661,25.205,15.978,36.981,8.026,41.519c-9.33,5.324-22.942,10.465-27.321,3.385
							C3516.973,2449.214,3513.643,2451.397,3510.704,2450.843z" class="colorf9a6a6 svgShape"></path></g><path fill="#a6cef9" d="M3465.477,2603.16l73.073,49.234c0,0,108.285,64.309,75.707-32.554
						c-32.554-96.893-64.425-177.467-64.425-177.467l-25.492,10.965l39.445,154.281l-31.737-47.057
						C3532.049,2560.561,3456.83,2562.897,3465.477,2603.16z" class="colorf9a6a6 svgShape"></path><path fill="#4ba0fb" d="M3543.746,2571.996l-49.959,52.983c0,0-6.587-5.061-16.478-12.697
						c-4.952-3.824-10.697-8.257-16.893-13.032c-31.762-22.559-51.301-42.098-80.599-61.638
						c19.515-29.328,39.055-78.165,87.917-68.383c19.54,9.758,29.273,39.055,43.067,56.576c4.354,6.221,8.612,12.148,12.515,17.631
						C3535.037,2559.799,3543.746,2571.996,3543.746,2571.996z" class="colorfbc14b svgShape"></path><g fill="#000000" class="color000 svgShape"><path fill="#ffffff" d="M3298.219,2936.243c0,0,153.708,196.068-244.905,182.687
							C3053.314,3118.93,3137.01,2735.93,3298.219,2936.243z" class="colorfff svgShape"></path><path fill="#b8babc" d="M3244.735,2888.376c-2.306,96.106-191.421,230.554-191.421,230.554
							S3118.543,2820.572,3244.735,2888.376z" class="colorb8bcbc svgShape"></path><path fill="#ffffff" d="M2808.385,2936.243c0,0-153.658,196.068,244.929,182.687
							C3053.314,3118.93,2969.642,2735.93,2808.385,2936.243z" class="colorfff svgShape"></path><path fill="#b8babc" d="M2861.893,2888.376c2.305,96.106,191.421,230.554,191.421,230.554
							S2988.108,2820.572,2861.893,2888.376z" class="colorb8bcbc svgShape"></path><g fill="#000000" class="color000 svgShape"><rect width="565.236" height="449.992" x="2770.696" y="3161.736" fill="#529ded" class="colored6d52 svgShape"></rect><rect width="113.542" height="449.992" x="2996.524" y="3161.736" fill="#dededf" class="colordfdfde svgShape"></rect><rect width="626.49" height="92.436" x="2740.081" y="3115.521" fill="#044080" class="color045f80 svgShape"></rect></g><rect width="113.542" height="92.436" x="2996.524" y="3115.521" fill="#ffffff" class="colorfff svgShape"></rect></g><g fill="#000000" class="color000 svgShape"><path fill="#ffffff" d="M3420.994,3250.842c0,0,82.123,104.73-130.825,97.594
							C3290.169,3348.436,3334.883,3143.824,3420.994,3250.842z" class="colorfff svgShape"></path><path fill="#b8babc" d="M3392.429,3225.265c-1.232,51.331-102.26,123.172-102.26,123.172
							S3325.028,3189.045,3392.429,3225.265z" class="colorb8bcbc svgShape"></path><path fill="#ffffff" d="M3159.306,3250.842c0,0-82.098,104.73,130.863,97.594
							C3290.169,3348.436,3245.467,3143.824,3159.306,3250.842z" class="colorfff svgShape"></path><path fill="#b8babc" d="M3187.896,3225.265c1.232,51.331,102.273,123.172,102.273,123.172
							S3255.309,3189.045,3187.896,3225.265z" class="colorb8bcbc svgShape"></path><g fill="#000000" class="color000 svgShape"><rect width="301.988" height="240.416" x="3139.181" y="3371.312" fill="#4ba0fb" class="colorfbc14b svgShape"></rect><rect width="60.644" height="240.416" x="3259.847" y="3371.312" fill="#dededf" class="colordfdfde svgShape"></rect><rect width="334.711" height="49.392" x="3122.825" y="3346.6" fill="#044080" class="color045f80 svgShape"></rect></g><rect width="60.644" height="49.392" x="3259.847" y="3346.6" fill="#ffffff" class="colorfff svgShape"></rect></g><path fill="#4ba0fb" d="M3475.845,2042.425c0-4.22,13.039-7.733,30.505-8.63c0.865-17.442,4.403-30.505,8.599-30.505
				c4.22,0,7.733,13.063,8.635,30.505c17.405,0.897,30.468,4.409,30.468,8.63c0,4.201-13.063,7.738-30.468,8.605
				c-0.903,17.442-4.415,30.505-8.635,30.505c-4.196,0-7.733-13.063-8.599-30.505
				C3488.884,2050.163,3475.845,2046.626,3475.845,2042.425z" class="colorfbc14b svgShape"></path><path fill="#529ded" d="M3264.567,2243.682c0-2.75,8.55-5.062,19.979-5.635c0.585-11.411,2.866-19.96,5.623-19.96
				c2.781,0,5.062,8.55,5.659,19.96c11.38,0.573,19.93,2.884,19.93,5.635c0,2.757-8.55,5.038-19.93,5.641
				c-0.597,11.411-2.878,19.961-5.659,19.961c-2.757,0-5.038-8.55-5.623-19.961
				C3273.117,2248.72,3264.567,2246.438,3264.567,2243.682z" class="colored6d52 svgShape"></path><path fill="#4ba0fb" d="M3320.49,2042.425c0-2.781,8.551-5.062,19.954-5.666c0.573-11.41,2.891-19.93,5.611-19.93
				c2.781,0,5.086,8.52,5.672,19.93c11.405,0.604,19.954,2.885,19.954,5.666c0,2.756-8.55,5.037-19.954,5.641
				c-0.586,11.41-2.891,19.936-5.672,19.936c-2.72,0-5.038-8.526-5.611-19.936C3329.041,2047.462,3320.49,2045.181,3320.49,2042.425
				z" class="colorfbc14b svgShape"></path></g><g fill="#000000" class="color000 svgShape"><path fill="#529ded" d="M1876.736,3265.264l407.87-101.089l-144.255-582.056
									c-2.915-11.855-14.93-19.064-26.76-16.131l-365.009,90.49c-11.855,2.915-19.064,14.898-16.124,26.755L1876.736,3265.264z" class="colored6d52 svgShape"></path><path fill="#5d80a6" d="M1992.706,2650.448c2.062,8.367,10.514,13.459,18.881,11.385
											c8.343-2.073,13.453-10.544,11.356-18.887c-2.049-8.367-10.514-13.429-18.832-11.38
											C1995.743,2633.634,1990.632,2642.111,1992.706,2650.448z" class="color8d5da6 svgShape"></path><path fill="#7794b4" d="M1998.256,2649.088c1.293,5.293,6.671,8.519,11.941,7.208
											c5.33-1.336,8.55-6.684,7.233-11.984c-1.281-5.3-6.66-8.526-11.978-7.214
											C2000.122,2638.409,1996.926,2643.788,1998.256,2649.088z" class="colora777b4 svgShape"></path><path fill="#5d80a6" d="M1864.697,2682.184c2.05,8.343,10.502,13.46,18.833,11.361
											c8.343-2.049,13.465-10.52,11.392-18.863c-2.073-8.336-10.526-13.429-18.893-11.355
											C1867.722,2665.401,1862.6,2673.817,1864.697,2682.184z" class="color8d5da6 svgShape"></path><path fill="#7794b4" d="M1870.187,2680.824c1.329,5.299,6.684,8.525,11.99,7.208
											c5.293-1.305,8.55-6.684,7.208-11.983c-1.318-5.3-6.66-8.526-11.965-7.215
											C1872.125,2670.146,1868.869,2675.5,1870.187,2680.824z" class="colora777b4 svgShape"></path><g fill="#000000" class="color000 svgShape"><path fill="#11355c" d="M1881.334,2684.624c3.403-0.866,5.501-4.3,4.635-7.733l-13.709-55.344
										c-7.904-31.871,11.612-64.266,43.507-72.158c31.871-7.921,64.242,11.594,72.158,43.489l13.721,55.344
										c0.842,3.433,4.306,5.482,7.709,4.665c3.44-0.835,5.537-4.3,4.672-7.708l-13.746-55.369
										c-9.55-38.719-48.885-62.376-87.575-52.801c-38.713,9.599-62.424,48.892-52.825,87.605l13.734,55.368
										C1874.431,2683.392,1877.919,2685.465,1881.334,2684.624z" class="color11405c svgShape"></path></g><g fill="#000000" class="color000 svgShape"><path fill="#dcecfe" d="M2095.893,3368.585h420.238v-618.232c0-1.953-1.583-3.536-3.536-3.536h-413.17
									c-1.95,0-3.531,1.581-3.531,3.531V3368.585z" class="coloredfedc svgShape"></path><path fill="#1a86fa" d="M2095.893,3368.585h420.238v-134.954l-115.75-0.208l23.004-107.2l92.747,0.207v-21.9
									l-88.026-0.183l21.882-101.9l66.145,0.183v-43.226l-420.238-1.312v43.33l151.158,0.421l0.342,102.059l-151.5-0.342v21.924
									l151.573,0.342l0.366,107.334l-151.939-0.262v22.241l152.025,0.207l0.342,97.473l-152.366-0.134V3368.585z
									 M2374.73,3352.973l20.882-97.387l120.129,0.213l-18.942,97.283L2374.73,3352.973z M2269.128,3255.403l104.76,0.158
									l-21.028,97.387l-83.282-0.079L2269.128,3255.403z M2268.531,3125.858l133.265,0.311l-23.15,107.23l-109.615-0.189
									L2268.531,3125.858z M2268.006,3001.894l160.501,0.476l-21.979,101.9l-138.083-0.317L2268.006,3001.894z" class="colorfaa51a svgShape"></path><path fill="#1f87f6" d="M2356.374,2799.721c0,8.605,6.977,15.551,15.575,15.551
											c8.611,0,15.612-6.946,15.612-15.551c0-8.605-7.001-15.581-15.612-15.581
											C2363.35,2784.14,2356.374,2791.116,2356.374,2799.721z" class="colorf6861f svgShape"></path><path fill="#1083fe" d="M2362.057,2799.721c0,5.452,4.44,9.886,9.892,9.886c5.453,0,9.892-4.434,9.892-9.886
											c0-5.458-4.439-9.892-9.892-9.892C2366.497,2789.83,2362.057,2794.263,2362.057,2799.721z" class="colorfebd10 svgShape"></path><g fill="#000000" class="color000 svgShape"><path fill="#1f87f6" d="M2224.462,2799.721c0,8.605,6.977,15.551,15.576,15.551
											c8.611,0,15.588-6.946,15.588-15.551c0-8.605-6.977-15.581-15.588-15.581
											C2231.439,2784.14,2224.462,2791.116,2224.462,2799.721z" class="colorf6861f svgShape"></path><path fill="#1083fe" d="M2230.158,2799.721c0,5.452,4.403,9.886,9.88,9.886c5.464,0,9.916-4.434,9.916-9.886
											c0-5.458-4.452-9.892-9.916-9.892C2234.561,2789.83,2230.158,2794.263,2230.158,2799.721z" class="colorfebd10 svgShape"></path></g><g fill="#000000" class="color000 svgShape"><path fill="#11355c" d="M2240.038,2806.094c3.525,0,6.354-2.86,6.354-6.397V2742.7
										c0-32.865,26.748-59.595,59.619-59.595c32.834,0,59.571,26.73,59.571,59.595v56.997c0,3.537,2.854,6.397,6.366,6.397
										c3.55,0,6.379-2.86,6.379-6.397V2742.7c0-39.897-32.444-72.317-72.316-72.317c-39.897,0-72.341,32.42-72.341,72.317v56.997
										C2233.671,2803.234,2236.525,2806.094,2240.038,2806.094z" class="color11405c svgShape"></path></g></g><g fill="#000000" class="color000 svgShape"><defs><filter id="e" width="351.788" height="520.472" x="1804.322" y="2852.651" filterUnits="userSpaceOnUse"><feFlood flood-color="#fff" flood-opacity="1" result="back"></feFlood><feBlend in="SourceGraphic" in2="back"></feBlend></filter></defs><mask id="g" width="351.788" height="520.472" x="1804.322" y="2852.651" maskUnits="userSpaceOnUse"><g filter="url(#e)" fill="#000000" class="color000 svgShape"><defs><filter id="f" width="351.788" height="520.472" x="1804.322" y="2852.651" filterUnits="userSpaceOnUse"><feFlood flood-color="#fff" flood-opacity="1" result="back"></feFlood><feBlend in="SourceGraphic" in2="back"></feBlend></filter></defs><linearGradient id="h" x1="3351.296" x2="3351.296" y1="3373.123" y2="2852.651" gradientTransform="matrix(-1 0 0 1 5331.512 0)" gradientUnits="userSpaceOnUse"><stop offset="0" stop-color="#ffffff" class="stopColorfff svgShape"></stop><stop offset=".104" stop-color="#f9f9f9" class="stopColorf9f9f9 svgShape"></stop><stop offset=".25" stop-color="#e6e6e6" class="stopColore6e6e6 svgShape"></stop><stop offset=".42" stop-color="#c9c9c9" class="stopColorc9c9c9 svgShape"></stop><stop offset=".608" stop-color="#9f9f9f" class="stopColor9f9f9f svgShape"></stop><stop offset=".809" stop-color="#6b6b6b" class="stopColor6b6b6b svgShape"></stop><stop offset=".997" stop-color="#333333" class="stopColor333 svgShape"></stop></linearGradient><polygon fill="url(#h)" points="1804.322 3373.123 2156.11 3373.123 2156.11 2852.651 1804.322 2852.651" mask="url(#g)"></polygon></g></mask><linearGradient id="i" x1="3351.296" x2="3351.296" y1="3373.123" y2="2852.651" gradientTransform="matrix(-1 0 0 1 5331.512 0)" gradientUnits="userSpaceOnUse"><stop offset="0" stop-color="#6190c2" class="stopColor61c29d svgShape"></stop><stop offset=".17" stop-color="#5b8dc2" class="stopColor5bc2a3 svgShape"></stop><stop offset=".406" stop-color="#4882c1" class="stopColor48c1b2 svgShape"></stop><stop offset=".682" stop-color="#2b79cc" class="stopColor2bc1cc svgShape"></stop><stop offset=".985" stop-color="#0275ef" class="stopColor02c0ef svgShape"></stop><stop offset=".997" stop-color="#0074f1" class="stopColor00c0f1 svgShape"></stop></linearGradient><polygon fill="url(#i)" points="1804.322 3373.123 2156.11 3373.123 2156.11 2852.651 1804.322 2852.651"></polygon><rect width="351.788" height="520.472" x="1804.322" y="2852.651" fill="#4177b1" transform="rotate(-180 1980.216 3112.887)" class="color41b193 svgShape"></rect><path fill="#1083fe" d="M2229.634,3141.098c0,123.562-100.175,223.731-223.743,223.731
										c-123.569,0-223.73-100.169-223.73-223.731c0-123.568,100.162-223.736,223.73-223.736
										C2129.459,2917.362,2229.634,3017.53,2229.634,3141.098z" class="colorfebd10 svgShape"></path><path fill="#4ba0fb" d="M2209.167,3141.098c0,112.262-91.014,203.276-203.276,203.276
										c-112.262,0-203.276-91.014-203.276-203.276c0-112.292,91.015-203.282,203.276-203.282
										C2118.153,2937.816,2209.167,3028.806,2209.167,3141.098z" class="colorfbc14b svgShape"></path><path fill="#2088f8" d="M2077.683,3150.38c-5.11-9.733-11.404-16.497-18.881-20.35
										c-7.477-3.861-15.71-7.19-24.687-10.075c-8.965-2.86-17.21-4.934-24.651-6.19c-7.501-1.232-13.795-3.696-18.893-7.374
										c-5.111-3.72-7.684-8.861-7.684-15.447c0-5.428,2.135-9.94,6.379-13.325c4.245-3.433,8.708-5.166,13.429-5.166
										c4.513,0,8.367,0.469,11.624,1.446c3.22,0.969,5.611,1.988,7.074,3.092c1.525,1.073,3.147,2.464,4.879,4.068
										c1.756,1.677,2.891,2.75,3.391,3.305c5.708,4.378,10.831,6.58,15.282,6.58c7.014,0,13.856-5.428,20.626-16.448
										c4.927-8.209,7.465-14.503,7.465-18.911c0-3.824-3.171-8.892-9.355-15.21l-1.5-1.232l-3.379-3.305
										c-2.232-1.89-6.22-4.378-11.965-7.397c-5.745-3.019-12.088-5.349-19.064-7.001v-23.004c0-6.873-0.268-12.093-0.732-15.637
										c-0.5-3.568-2.439-6.922-5.83-10.093c-3.354-3.153-8.391-4.727-15.136-4.727c-5.22,0-9.465,0.683-12.685,2.074
										c-3.232,1.366-5.489,3.701-6.745,6.977c-1.256,3.281-2,6.245-2.256,8.867c-0.232,2.567-0.366,6.635-0.366,12.118v23.028
										c-16.686,3.854-29.798,12.331-39.238,25.467c-9.502,13.167-14.222,27.858-14.222,44.044
										c0,16.704,3.488,30.425,10.465,41.122c6.977,10.679,15.453,18.235,25.443,22.614c9.965,4.403,19.906,7.892,29.907,10.52
										c9.941,2.592,18.43,5.531,25.406,8.812c6.977,3.305,10.478,7.947,10.478,14.002c0,16.71-9.233,25.077-27.676,25.077
										c-9.733,0-18.442-5.196-26.175-15.63l-1.89-2.073c-8.684-9.575-16.051-14.399-22.04-14.399
										c-5.22,0-10.355,2.647-15.319,7.843c-8.489,9.05-12.746,16.996-12.746,23.839c0,4.092,2.658,9.861,7.879,17.259
										l4.867,6.977c3.232,4.409,8.977,9.495,17.185,15.24c8.233,5.77,17.442,9.892,27.676,12.356v25.491
										c0,5.482,0.134,9.526,0.366,12.148c0.256,2.598,1,5.61,2.256,9.019c1.256,3.44,3.44,5.849,6.525,7.215
										c3.122,1.366,7.318,2.043,12.538,2.043c5.221,0,9.416-0.677,12.514-2.043c3.147-1.366,5.379-3.696,6.745-6.977
										c1.354-3.281,2.171-6.324,2.439-9.05c0.257-2.781,0.366-6.714,0.366-11.934v-26.333
										c15.942-4.093,29.529-12.618,40.726-25.492c11.258-12.88,16.869-30.035,16.869-51.41
										C2085.367,3172.256,2082.793,3160.138,2077.683,3150.38z" class="colorf8ec20 svgShape"></path><path fill="#427cbb" d="M2156.11,2958.277l-351.787-1.103v43.385l76.463,0.238l21.894,102.291
									l-98.357-0.232v22.003l103.077,0.213l23.089,107.566l-113.628-0.183l-12.539-48.813v189.451h351.787v-20.351l-73.121-0.055
									l0.415-97.57l72.707,0.104v-22.217l-72.597-0.104l0.439-107.414l72.158,0.134v-21.93l-72.048-0.183l0.463-102.138
									l71.584,0.214V2958.277z M1957.078,3254.903l105.102,0.183l-0.549,97.552l-83.513-0.079L1957.078,3254.903z
									 M1935.233,3254.878l20.954,97.65l-108.566-0.104l-25.065-97.705L1935.233,3254.878z M1929.123,3125.12l133.716,0.317
									l-0.549,107.407l-109.981-0.159L1929.123,3125.12z M2063.497,3001.32l-0.525,102.163l-138.57-0.342l-22.04-102.297
									L2063.497,3001.32z" opacity=".2" class="color4277bb svgShape"></path><g fill="#000000" class="color000 svgShape"><path fill="#3990ed" d="M2022.369,2896.95c0,7.19,5.842,13.039,13.063,13.039c7.208,0,13.026-5.848,13.026-13.039
											c0-7.208-5.818-13.057-13.026-13.057C2028.211,2883.893,2022.369,2889.741,2022.369,2896.95z" class="color39bbed svgShape"></path><path fill="#69a4e3" d="M2027.114,2896.95c0,4.543,3.72,8.264,8.318,8.264c4.586,0,8.282-3.721,8.282-8.264
											c0-4.586-3.696-8.312-8.282-8.312C2030.834,2888.638,2027.114,2892.364,2027.114,2896.95z" class="color69cce3 svgShape"></path><g fill="#000000" class="color000 svgShape"><path fill="#3990ed" d="M1911.937,2896.95c0,7.19,5.879,13.039,13.063,13.039c7.22,0,13.039-5.848,13.039-13.039
											c0-7.208-5.818-13.057-13.039-13.057C1917.816,2883.893,1911.937,2889.741,1911.937,2896.95z" class="color39bbed svgShape"></path><path fill="#69a4e3" d="M1916.742,2896.95c0,4.543,3.696,8.264,8.258,8.264c4.598,0,8.294-3.721,8.294-8.264
											c0-4.586-3.696-8.312-8.294-8.312C1920.438,2888.638,1916.742,2892.364,1916.742,2896.95z" class="color69cce3 svgShape"></path></g></g><g fill="#000000" class="color000 svgShape"><path fill="#11355c" d="M1925,2902.25c2.94,0,5.33-2.36,5.33-5.3v-47.764c0-27.462,22.369-49.862,49.886-49.862
										c27.516,0,49.862,22.4,49.862,49.862v47.764c0,2.939,2.391,5.3,5.354,5.3c2.939,0,5.318-2.36,5.318-5.3v-47.764
										c0-33.359-27.175-60.534-60.534-60.534c-33.396,0-60.534,27.175-60.534,60.534v47.764
										C1919.682,2899.889,1922.06,2902.25,1925,2902.25z" class="color11405c svgShape"></path></g></g><g fill="#000000" class="color000 svgShape"><defs><filter id="j" width="286.607" height="424.055" x="2106.638" y="2905.921" filterUnits="userSpaceOnUse"><feFlood flood-color="#fff" flood-opacity="1" result="back"></feFlood><feBlend in="SourceGraphic" in2="back"></feBlend></filter></defs><mask id="l" width="286.607" height="424.055" x="2106.638" y="2905.921" maskUnits="userSpaceOnUse"><g filter="url(#j)" fill="#000000" class="color000 svgShape"><defs><filter id="k" width="286.607" height="424.055" x="2106.638" y="2905.921" filterUnits="userSpaceOnUse"><feFlood flood-color="#fff" flood-opacity="1" result="back"></feFlood><feBlend in="SourceGraphic" in2="back"></feBlend></filter></defs><linearGradient id="m" x1="3081.57" x2="3081.57" y1="3329.976" y2="2905.921" gradientTransform="matrix(-1 0 0 1 5331.512 0)" gradientUnits="userSpaceOnUse"><stop offset="0" stop-color="#ffffff" class="stopColorfff svgShape"></stop><stop offset=".104" stop-color="#f9f9f9" class="stopColorf9f9f9 svgShape"></stop><stop offset=".25" stop-color="#e6e6e6" class="stopColore6e6e6 svgShape"></stop><stop offset=".42" stop-color="#c9c9c9" class="stopColorc9c9c9 svgShape"></stop><stop offset=".608" stop-color="#9f9f9f" class="stopColor9f9f9f svgShape"></stop><stop offset=".809" stop-color="#6b6b6b" class="stopColor6b6b6b svgShape"></stop><stop offset=".997" stop-color="#333333" class="stopColor333 svgShape"></stop></linearGradient><polygon fill="url(#m)" points="2106.638 3329.976 2393.245 3329.976 2393.245 2905.921 2106.638 2905.921" mask="url(#l)"></polygon></g></mask><linearGradient id="n" x1="3081.57" x2="3081.57" y1="3329.976" y2="2905.921" gradientTransform="matrix(-1 0 0 1 5331.512 0)" gradientUnits="userSpaceOnUse"><stop offset="0" stop-color="#6190c2" class="stopColor61c29d svgShape"></stop><stop offset=".17" stop-color="#5b8dc2" class="stopColor5bc2a3 svgShape"></stop><stop offset=".406" stop-color="#4882c1" class="stopColor48c1b2 svgShape"></stop><stop offset=".682" stop-color="#2b79cc" class="stopColor2bc1cc svgShape"></stop><stop offset=".985" stop-color="#0275ef" class="stopColor02c0ef svgShape"></stop><stop offset=".997" stop-color="#0074f1" class="stopColor00c0f1 svgShape"></stop></linearGradient><polygon fill="url(#n)" points="2106.638 3329.976 2393.245 3329.976 2393.245 2905.921 2106.638 2905.921"></polygon><rect width="286.607" height="478.765" x="2106.638" y="2905.921" fill="#2f8bee" transform="rotate(-180 2249.942 3145.303)" class="coloree2f52 svgShape"></rect><rect width="286.607" height="478.765" x="2106.638" y="2905.921" fill="#2f8bee" transform="rotate(-180 2249.942 3145.303)" class="coloree2f52 svgShape"></rect><rect width="286.607" height="478.765" x="2106.638" y="2905.921" fill="#529ded" transform="rotate(-180 2249.942 3145.303)" class="colored6d52 svgShape"></rect><path fill="#11355c" d="M2247.051,3001.845l0.342,102.059l-140.754-0.317v21.93l140.828,0.311l0.366,107.334
									l-141.194-0.238v22.217l141.279,0.207l0.342,97.473l-141.621-0.134v15.899h286.607v-15.612h-18.515l18.515-86.263v-100.851
									l-14.6,67.541l-109.615-0.189l-0.5-107.352l124.715,0.287v-21.9l-124.801-0.292l-0.439-102.059l125.24,0.372v-43.257
									l-286.607-0.86v43.3L2247.051,3001.845z M2269.128,3255.403l104.76,0.158l-21.028,97.387l-83.282-0.079L2269.128,3255.403z" class="color11405c svgShape"></path><path fill="#1d5ea3" d="M2284.289,2942.012c0,5.879,4.757,10.624,10.624,10.624
											c5.854,0,10.623-4.745,10.623-10.624c0-5.873-4.769-10.617-10.623-10.617
											C2289.046,2931.394,2284.289,2936.139,2284.289,2942.012z" class="colora31d2a svgShape"></path><path fill="#2f8bee" d="M2288.143,2942.012c0,3.751,3.049,6.745,6.769,6.745c3.732,0,6.745-2.994,6.745-6.745
											c0-3.72-3.013-6.739-6.745-6.739C2291.193,2935.273,2288.143,2938.292,2288.143,2942.012z" class="coloree2f52 svgShape"></path><g fill="#000000" class="color000 svgShape"><path fill="#1d5ea3" d="M2194.323,2942.012c0,5.879,4.781,10.624,10.623,10.624
											c5.879,0,10.648-4.745,10.648-10.624c0-5.873-4.769-10.617-10.648-10.617
											C2199.105,2931.394,2194.323,2936.139,2194.323,2942.012z" class="colora31d2a svgShape"></path><path fill="#2f8bee" d="M2198.214,2942.012c0,3.751,3.013,6.745,6.733,6.745c3.757,0,6.745-2.994,6.745-6.745
											c0-3.72-2.988-6.739-6.745-6.739C2201.227,2935.273,2198.214,2938.292,2198.214,2942.012z" class="coloree2f52 svgShape"></path></g><g fill="#000000" class="color000 svgShape"><path fill="#11355c" d="M2204.947,2946.366c2.391,0,4.33-1.94,4.33-4.355v-38.896
										c0-22.4,18.259-40.628,40.677-40.628c22.381,0,40.604,18.228,40.604,40.628v38.896c0,2.415,1.94,4.355,4.354,4.355
										c2.391,0,4.354-1.94,4.354-4.355v-38.896c0-27.2-22.137-49.337-49.312-49.337c-27.199,0-49.361,22.137-49.361,49.337
										v38.896C2200.593,2944.427,2202.532,2946.366,2204.947,2946.366z" class="color11405c svgShape"></path></g></g><g fill="#000000" class="color000 svgShape"><path fill="#044080" d="M1558.295,2846.674c0,11.801,9.648,21.455,21.43,21.455h33.798
									c0.037,0.024,0.086,0.104,0.11,0.183h37.567l45.032,135.814l102.37,358.27h-8.685c-52.142,0-94.576,42.434-94.576,94.607
									c0,52.143,42.433,94.606,94.576,94.606h558.614c11.905,0,21.564-9.599,21.564-21.503c0-11.935-9.66-21.564-21.564-21.564
									h-558.614c-28.407,0-51.484-23.132-51.484-51.539c0-28.407,23.077-51.515,51.484-51.515h726.616
									c10.087,0,18.832-7.031,21.003-16.893l85.27-386.018c1.391-6.373-0.158-13.033-4.269-18.125
									c-4.037-5.11-10.233-8.074-16.759-8.074h-869.346l-45.227-136.394c-2.915-8.812-11.173-14.771-20.455-14.771h-41.372
									h-30.993h-14.661C1567.943,2825.213,1558.295,2834.867,1558.295,2846.674z M2059.119,3120.376h-141.376l-23.821-100.882
									h165.198V3120.376z M2059.119,3246.75h-111.554l-24.736-104.816h136.29V3246.75z M2552.673,3120.376h-119.971l23.76-100.882
									h118.507L2552.673,3120.376z M2524.766,3246.75h-121.922l24.76-104.816h120.3L2524.766,3246.75z M2375.572,3362.396
									l22.186-94.088h122.227l-20.772,94.088H2375.572z M2269.164,3268.308h106.432l-22.186,94.088h-84.246V3268.308z
									 M2269.164,3141.934h136.278l-24.736,104.816h-111.542V3141.934z M2269.164,3019.494h165.209l-23.833,100.882h-141.376
									V3019.494z M2080.646,3268.308H2247.6v94.088h-166.954V3268.308z M2080.646,3141.934H2247.6v104.816h-166.954V3141.934z
									 M2080.646,3019.494H2247.6v100.882h-166.954V3019.494z M1974.862,3362.396l-22.211-94.088h106.469v94.088H1974.862z
									 M1816.519,3268.308h114.018l22.211,94.088h-109.347L1816.519,3268.308z M1780.428,3141.934h120.263l24.76,104.816h-115.067
									L1780.428,3141.934z M1745.459,3019.494h126.325l23.845,100.882h-121.361L1745.459,3019.494z" class="color045f80 svgShape"></path><path fill="#11355c" d="M2174.991,3551.609c0,40.11,32.505,72.603,72.609,72.603s72.597-32.493,72.597-72.603
										c0-40.104-32.493-72.603-72.597-72.603S2174.991,3511.505,2174.991,3551.609z" class="color11405c svgShape"></path><path fill="#4177b1" d="M2204.556,3551.609c0,23.79,19.284,43.098,43.044,43.098
										c23.809,0,43.117-19.308,43.117-43.098c0-23.79-19.308-43.068-43.117-43.068
										C2223.84,3508.541,2204.556,3527.818,2204.556,3551.609z" class="color41b193 svgShape"></path><path fill="#1083fe" d="M2231.366,3551.609c0,9.001,7.257,16.289,16.234,16.289c8.99,0,16.283-7.288,16.283-16.289
										c0-8.965-7.293-16.259-16.283-16.259C2238.623,3535.35,2231.366,3542.644,2231.366,3551.609z" class="colorfebd10 svgShape"></path><g fill="#000000" class="color000 svgShape"><path fill="#11355c" d="M1835.01,3551.609c0,40.11,32.493,72.603,72.597,72.603
										c40.117,0,72.609-32.493,72.609-72.603c0-40.104-32.493-72.603-72.609-72.603
										C1867.503,3479.006,1835.01,3511.505,1835.01,3551.609z" class="color11405c svgShape"></path><path fill="#4177b1" d="M1864.515,3551.609c0,23.79,19.283,43.098,43.092,43.098
										c23.821,0,43.105-19.308,43.105-43.098c0-23.79-19.284-43.068-43.105-43.068
										C1883.798,3508.541,1864.515,3527.818,1864.515,3551.609z" class="color41b193 svgShape"></path><path fill="#1083fe" d="M1891.348,3551.609c0,9.001,7.294,16.289,16.259,16.289c8.977,0,16.271-7.288,16.271-16.289
										c0-8.965-7.294-16.259-16.271-16.259C1898.642,3535.35,1891.348,3542.644,1891.348,3551.609z" class="colorfebd10 svgShape"></path></g></g><g fill="#000000" class="color000 svgShape"><path fill="#0d243c" d="M1474.672,2231.46c-5.635,0-10.148,8.184-10.148,18.204c0,9.995,4.513,18.204,10.148,18.204
								c5.659,0,10.172-8.209,10.172-18.204C1484.844,2239.645,1480.331,2231.46,1474.672,2231.46z M1474.672,2265.667
								c-4.928,0-8.941-7.215-8.941-16.002c0-8.892,4.013-16.027,8.941-16.027c4.952,0,8.989,7.135,8.989,16.027
								C1483.661,2258.452,1479.624,2265.667,1474.672,2265.667z" class="color0d1d3c svgShape"></path><path fill="#9dc9f9" d="M1350.762,3522.525c0,0-1.439,29.48,2.94,33.359c4.33,3.885,15.453,10.154,15.453,10.154
										s-55.582,28.51-66.73,13.533c-11.099-14.978-7.245-52.222-7.245-52.222S1341.114,3512.401,1350.762,3522.525z" class="colorf99d9d svgShape"></path><path fill="#11355c" d="M1438.264,3588.755c0,0,37.75,1.94,39.665,18.856c1.915,16.917,0,10.148,0,10.148h-187.567
										c0,0-6.306-0.104-5.806-13.819l2.391-44.171c0,0,5.794-3.409,15.978,5.769c10.148,9.184,33.835,14.533,58.985-12.093
										c0,0,3.757-2.885,19.747,9.709C1397.659,3575.691,1393.806,3588.755,1438.264,3588.755z" class="color11405c svgShape"></path><path fill="#044080" d="M1446.472,2833.611c0,0,14.43,28.352,12.38,56.735
										c-2.05,28.352-40.885,639.418-40.885,639.418s-118.458-5.8-139.705,11.618c-21.296,17.417,7.709-320.996-13.526-462.19
										c-21.272-141.162-58.021-131.484-40.604-232.049C1241.513,2746.579,1446.472,2833.611,1446.472,2833.611z" class="color045f80 svgShape"></path><path fill="#9dc9f9" d="M1480.649,2231.516c-2.622,25.784-5.245,45.141-3.196,55.789
										c1.963,10.52,3.989,16.734-5.147,15.502c-3.854-0.604-5.038,1.336-5.087,3.751c-0.073,1.049,0.11,2.146,0.39,3.275
										c0.134,0.683,0.379,1.39,0.61,2.049c0.232,0.628,0.391,1.153,0.622,1.519c0.134,0.445,0.244,0.683,0.244,0.683
										s0.415,2.989,0.342,7.27c0,1.153-0.061,2.464-0.159,3.745c-0.183,1.866-0.475,3.909-0.951,6.007
										c-0.183,1.128-0.463,2.233-0.805,3.281c-0.427,1.415-0.952,2.86-1.574,4.227c-0.817,1.963-1.939,3.903-3.232,5.659
										c-6.319,8.24-18.198,13.46-40.36,7.245c-13.722-3.861-22.406-6.3-27.358-7.874l-1.89,5.434l-15.32,44.562l-59.826-15.502
										l-5.903-74.384c0,0-39.579-90.941,22.296-101.486c61.876-10.703,81.147-53.216,129.655-16.441
										C1464,2185.825,1483.198,2205.835,1480.649,2231.516z" class="colorf99d9d svgShape"></path><path fill="#11355c" d="M1409.284,2253.94c0,0-11.148-29.011-27.566-25.125
										c-16.454,3.854-26.602,36.719-35.786,49.312c-9.172,12.563-27.541,27.565-38.189,27.565s-20.32-40.628-16.417-70.114
										c3.854-29.48-15.002-138.748,174.504-93.32c0,0,4.83,0.891,11.624-10.91c6.77-11.807,1.439,18.906,1.439,18.906
										s16.185-9.441,13.538-23.943c0,0,23.687,29.504,9.172,46.397c0,0,18.161,0.97,15.978-24.864
										c0,0,14.246,75.878-39.653,72.993c0,0-8.478-19.826-27.578-20.089C1431.238,2200.535,1417.968,2252.97,1409.284,2253.94z" class="color11405c svgShape"></path><path fill="#9dc9f9" d="M1552.941,2879.984c-3.44-2.391-7.27-5.324-11.356-8.55l-0.061-0.079
										c-3.244-2.543-6.733-5.354-10.38-8.367c0,0-0.634-4.568-21.406-28.383c-20.674-23.87-61.058-26.15-61.058-26.15
										s-8.892-24.577,8.001-42.519l70.584,41.445c0,0,9.124,0.525,21.235,3.488c10.734,2.647,23.907,7.184,35.103,15.003
										c23.894,16.552,8.16,15.972,8.16,15.972l-33.445-12.508c0,0-9.526,14.685,24.992,38.5c0.609,0.396,1.183,0.787,1.683,1.183
										C1572.249,2878.88,1562.674,2883.997,1552.941,2879.984z" class="colorf99d9d svgShape"></path><path fill="#4ba0fb" d="M1303.388,2354.266c0,0,91.783,16.234,101.455,31.242
										c2.988,4.611-9.099,19.748-9.099,19.748s19.967,20.405,24.845,28.51c20.821,34.548,34.091,88.63,36.53,157.141
										c3.879,108.303,0,256.236,0,256.236s-212.717-26.096-235.928,28.041c-23.187,54.161,0-148.908,0-148.908
										s-1.939-165.349-3.854-216.576c-1.939-51.252,56.777-81.361,78.342-111.182
										C1317.183,2368.641,1303.388,2354.266,1303.388,2354.266z" class="colorfbc14b svgShape"></path><path fill="#dcecfe" d="M1379.169,2520.799c0,0,5.855-44.275-32.651-62.352
										c-38.506-18.094-63.717,1.653-73.524,17.814c-25.675,42.226-61.193,184.889-62.449,187.511
										c-1.231,2.623-14.844,59.278,69.317,107.359c84.172,48.075,172.966,88.709,172.966,88.709s20.089-63.217,16.283-93.825
										c-3.756-30.633-118.531-71.713-118.531-71.713s-47.032-12.484-29.456-54.423
										C1338.699,2597.909,1379.169,2520.799,1379.169,2520.799z" class="coloredfedc svgShape"></path><polygon fill="#11355c" points="1400.465 2889.266 1366.423 2948.519 1383.45 2952.77 1417.968 2889.266" class="color11405c svgShape"></polygon><path fill="#0d243c" d="M1467.195,2225.85c-8.343,0-15.052,10.703-15.052,23.815c0,13.087,6.709,23.791,15.052,23.791
								c8.318,0,15.027-10.703,15.027-23.791C1482.222,2236.552,1475.513,2225.85,1467.195,2225.85z M1467.195,2270.595
								c-7.318,0-13.246-9.44-13.246-20.93c0-11.617,5.928-20.954,13.246-20.954c7.294,0,13.27,9.337,13.27,20.954
								C1480.466,2261.155,1474.489,2270.595,1467.195,2270.595z" class="color0d1d3c svgShape"></path><polygon fill="#0d243c" points="1402.246 2240.773 1454.132 2240.773 1452.083 2249.665 1403.514 2243.792" class="color0d1d3c svgShape"></polygon><path fill="#0d243c" d="M1489.333,2249.927c0,2.573-1.988,4.696-4.488,4.696c-2.464,0-4.452-2.123-4.452-4.696
								c0-2.598,1.988-4.72,4.452-4.72C1487.345,2245.207,1489.333,2247.329,1489.333,2249.927z" class="color0d1d3c svgShape"></path></g><g fill="#000000" class="color000 svgShape"><path fill="#81b8f2" d="M1469.427,2321.353c0,1.153-0.061,2.464-0.159,3.745c-0.183,1.866-0.475,3.909-0.951,6.007
						c-0.183,1.128-0.463,2.233-0.805,3.281c-0.244,0.287-0.476,0.525-0.769,0.762c-17.258-2.915-29.712-13.563-29.139-25.967
						l30.005,0.653c0.134,0.683,0.379,1.39,0.61,2.049c0.232,0.628,0.391,1.153,0.622,1.519c0.134,0.445,0.244,0.683,0.244,0.683
						S1469.5,2317.072,1469.427,2321.353z" class="colorf29181 svgShape"></path><path fill="#ffffff" d="M1469.427,2321.353c0,1.153-0.061,2.464-0.159,3.745c-0.183,1.866-0.475,3.909-0.951,6.007
						c-10.746-1.518-19.357-6.007-22.87-11.88c0,0,0,0-0.049,0c-0.159-0.342-0.342-0.628-0.524-1.025
						c-0.842-1.597-1.342-3.512-1.232-5.324l25.199,0.525c0.134,0.445,0.244,0.683,0.244,0.683S1469.5,2317.072,1469.427,2321.353z" class="colorfff svgShape"></path></g><path fill="#ffffff" d="M1476.38,2250.61c0,3.854-3.098,6.952-6.952,6.952c-3.83,0-6.927-3.098-6.927-6.952
					c0-3.83,3.097-6.928,6.927-6.928C1473.281,2243.682,1476.38,2246.78,1476.38,2250.61z" class="colorfff svgShape"></path><path fill="#81b8f2" d="M1451.583,2285.073c0,6.19-5.001,11.203-11.197,11.203c-6.184,0-11.197-5.013-11.197-11.203
					c0-6.19,5.013-11.197,11.197-11.197C1446.582,2273.876,1451.583,2278.883,1451.583,2285.073z" class="colorf29181 svgShape"></path><path fill="#4ba0fb" d="M1535.73,2039.906c0-3.934-12.221-7.239-28.565-8.05c-0.805-16.338-4.11-28.565-8.075-28.565
				c-3.939,0-7.208,12.228-8.05,28.565c-16.32,0.811-28.541,4.117-28.541,8.05c0,3.964,12.221,7.245,28.541,8.08
				c0.841,16.344,4.11,28.541,8.05,28.541c3.964,0,7.27-12.197,8.075-28.541C1523.509,2047.151,1535.73,2043.87,1535.73,2039.906z" class="colorfbc14b svgShape"></path><path fill="#529ded" d="M1604.924,2305.692c0-2.573-7.977-4.75-18.673-5.275c-0.525-10.697-2.708-18.698-5.27-18.698
				c-2.598,0-4.72,8.001-5.281,18.698c-10.697,0.525-18.698,2.702-18.698,5.275c0,2.598,8.001,4.72,18.698,5.269
				c0.561,10.703,2.683,18.705,5.281,18.705c2.562,0,4.745-8.001,5.27-18.705C1596.947,2310.412,1604.924,2308.29,1604.924,2305.692
				z" class="colored6d52 svgShape"></path><path fill="#4ba0fb" d="M1628.904,2156.369c0-2.573-8.001-4.751-18.71-5.3c-0.524-10.678-2.671-18.674-5.269-18.674
				c-2.573,0-4.721,7.995-5.294,18.674c-10.647,0.549-18.649,2.726-18.649,5.3c0,2.567,8.002,4.72,18.649,5.269
				c0.573,10.703,2.72,18.704,5.294,18.704c2.598,0,4.745-8.001,5.269-18.704
				C1620.903,2161.089,1628.904,2158.937,1628.904,2156.369z" class="colorfbc14b svgShape"></path></g><path fill="#ebf4fd" d="M3859.394 1833.958h-631.32c9.794-14.453 24.894-24.949 42.58-28.669-.061-.5-.061-1-.061-1.549 0-57.522 46.617-104.181 104.188-104.181 3.94 0 7.818.287 11.648.677 30.481-70.554 100.614-119.916 182.322-119.916 90.198 0 166.295 60.144 190.445 142.474C3815.509 1728.594 3859.394 1776.144 3859.394 1833.958zM1369.155 2010.505H925.902c6.867-10.123 17.491-17.521 29.895-20.119-.024-.342-.024-.708-.024-1.098 0-40.373 32.713-73.128 73.133-73.128 2.781 0 5.501.183 8.185.469 21.393-49.544 70.633-84.196 127.996-84.196 63.315 0 116.75 42.232 133.716 100.04C1338.333 1936.536 1369.155 1969.931 1369.155 2010.505z" class="colorfdf2eb svgShape"></path><g fill="#000000" class="color000 svgShape"><path fill="#4177b1" d="M3835.134,3225.185c17.917-12.35,39.555-17.863,58.18-28.932
			c19.43-11.538,35.932-28.718,49.862-46.19c6.318-7.892-4.83-19.198-11.209-11.197c-39.495,49.417-101.272,60.802-144.072,105.968
			c-24.528,25.858-32.81,62.846-35.518,99.803c-3.22-29.742-3.671-57.887,10.331-87.788c9.733-20.827,5.489-45.483,6.013-67.621
			c0.891-38.116,36.591-52.435,53.448-81.732c5.123-8.837-8.574-16.814-13.685-7.971c-13.063,22.631-39.372,34.408-48.971,59.51
			c-10.258,26.888-4.037,54.136-8.001,82.019c-1.915,13.197-12.746,28.931-17.393,42.177c-3.83,10.757-2.305,24.028-0.964,35.566
			c-5.879-14.082-15.209-27.773-22.662-40.866c-16.051-28.193,2.72-62.394,1.049-92.246c-3.232-56.131-67.413-89.338-118.848-88.789
			c-10.197,0.11-10.258,15.978,0,15.875c32.469-0.342,64.108,14.74,87.734,36.323c32.737,29.901,5.22,75.622,6.489,111.768
			c0.915,26.072,28.029,53.582,36.872,77.293c9.257,24.79,9.319,60.54,7.001,89.6c-20.247-49.728-46.312-103.602-86.917-138.961
			c-18.71-16.313-46.434-26.254-47.483-56.863c-0.549-15.899-0.439-27.779-6.086-42.86c-9.806-26.388-38.579-46.66-54.155-69.718
			c-5.72-8.422-19.491-0.525-13.721,8.001c16.393,24.26,45.898,48.002,55.863,74.646c11.599,31.188-3.903,48.892,23.004,73.969
			c12.758,11.88,28.151,21.271,41.287,32.682c14.161,12.325,23.089,31.267,32.005,47.477c7.477,13.581,16.1,25.809,25.492,38.086
			c3.781,4.952,6.587,10.41,8.917,16.076c-7.074-7.556-14.82-14.716-21.138-22.345c-14.844-17.997-27.309-36.646-46.239-50.783
			c-8.184-6.111-16.088,7.635-8.001,13.691c15.966,11.91,27.223,28.12,39.372,43.672c5.501,7.08,13.453,14.246,20.82,21.692
			c-5.537-2.018-11.123-3.909-17.051-5.427c-39.445-10.154-53.265-39.61-69.316-72.554c-18.308-37.689-39.434-67.986-80.684-81.153
			c-9.782-3.122-13.928,12.173-4.219,15.295c53.167,16.997,65.827,69.298,91.319,112.549c20.832,35.408,62.778,42.464,98.491,56.368
			c1.708,1.757,4.049,2.544,6.306,2.519c0.683,0.287,1.391,0.524,2.037,0.811c0.159,0.39,0.293,0.842,0.451,1.256
			c2.329,5.903,9.306,6.452,13.198,3.647c0.463,0.134,0.915,0.317,1.414,0.366c1.415,2.098,4.013,3.153,6.635,3.281
			c-4.415,8.971,9.075,16.838,13.746,7.818c11.404-22.01,22.418-44.568,31.712-67.724c12.588-6.3,26.199-11.361,35.299-17.631
			c32.005-22.059,55.155-59.198,98.442-49.752c9.965,2.177,14.185-13.118,4.22-15.296c-53.825-11.751-69.035,25.73-110.664,51.356
			c-5.818,3.568-12.539,6.903-19.454,10.312c4.403-12.959,8.282-26.101,11.087-39.506c12.063-56.808,78.269-100.352,126.874-122.648
			c9.282-4.244,1.207-17.911-8.002-13.667c-45.824,20.985-82.964,48.526-113.469,89.6c-15.392,20.723-20.113,40.451-25.602,65.236
			c-2.196,9.917-5.635,20.168-9.697,30.45c-3.367,1.835-6.562,3.75-9.709,5.769
			C3767.952,3323.31,3777.295,3265.026,3835.134,3225.185z" class="color41b193 svgShape"></path><path fill="#549cea" d="M3812.52,3474.651c-2.439-7.574-5.793-14.868-9.489-21.899c-2.135-4.037-4.355-7.971-6.611-11.905
			c-0.842-1.445-5.989-12.276-7.245-12.276h-58.143H3672.9c-1.281,0-6.403,10.831-7.233,12.276
			c-2.281,3.934-4.489,7.867-6.586,11.905c-3.72,7.032-7.087,14.325-9.55,21.899c-6.159,18.942-9.209,40.897-2.805,60.095
			c5.72,17.1,15.136,32.285,28.175,44.928c14.844,14.405,36.689,14.795,56.131,12.093c19.454,2.702,41.311,2.312,56.155-12.093
			c13.038-12.642,22.455-27.827,28.138-44.928C3821.753,3515.548,3818.68,3493.593,3812.52,3474.651z" class="coloreac054 svgShape"></path><path fill="#427fc0" d="M3812.52,3474.651c-2.439-7.574-5.793-14.868-9.489-21.899c-2.135-4.037-4.355-7.971-6.611-11.905
			c-0.842-1.445-5.989-12.276-7.245-12.276h-7.709c1.867,3.72,3.781,7.477,5.562,11.252c4.062,8.629,7.732,17.521,10.416,26.803
			c6.709,23.137,10.014,49.94,3.013,73.42c-5.221,17.68-13.539,33.518-24.529,47.397c4.037-1.97,7.867-4.464,11.258-7.769
			c13.038-12.642,22.455-27.827,28.138-44.928C3821.753,3515.548,3818.68,3493.593,3812.52,3474.651z" class="colorc09942 svgShape"></path></g></svg></g></svg>